<!-- icon666.com - MILLIONS vector ICONS FREE --><svg viewBox="0 0 64 64" xmlns="http://www.w3.org/2000/svg"><g id="cash-online-ecommerce-credit_card-shopping" data-name="cash-online-ecommerce-credit card-shopping"><path d="m35 34h3v-2h9 3 4v2h3v-5h-22z" fill="#9bc9ff"></path><path d="m59 3h-54a2 2 0 0 0 -2 2v54a2 2 0 0 0 2 2h54a2 2 0 0 0 2-2v-54a2 2 0 0 0 -2-2zm-46 52a2 2 0 0 1 -2 2h-2a2 2 0 0 1 -2-2v-2a2 2 0 0 1 2-2h2a2 2 0 0 1 2 2zm0-9a2 2 0 0 1 -2 2h-2a2 2 0 0 1 -2-2v-2a2 2 0 0 1 2-2h2a2 2 0 0 1 2 2zm0-9a2 2 0 0 1 -2 2h-2a2 2 0 0 1 -2-2v-2a2 2 0 0 1 2-2h2a2 2 0 0 1 2 2zm9 18a2 2 0 0 1 -2 2h-2a2 2 0 0 1 -2-2v-2a2 2 0 0 1 2-2h2a2 2 0 0 1 2 2zm0-9a2 2 0 0 1 -2 2h-2a2 2 0 0 1 -2-2v-2a2 2 0 0 1 2-2h2a2 2 0 0 1 2 2zm0-9a2 2 0 0 1 -2 2h-2a2 2 0 0 1 -2-2v-2a2 2 0 0 1 2-2h2a2 2 0 0 1 2 2zm9 18a2 2 0 0 1 -2 2h-2a2 2 0 0 1 -2-2v-2a2 2 0 0 1 2-2h2a2 2 0 0 1 2 2zm0-9a2 2 0 0 1 -2 2h-2a2 2 0 0 1 -2-2v-2a2 2 0 0 1 2-2h2a2 2 0 0 1 2 2zm0-9a2 2 0 0 1 -2 2h-2a2 2 0 0 1 -2-2v-2a2 2 0 0 1 2-2h2a2 2 0 0 1 2 2zm26-3h-3v20h-16v-20h-3v-5h22zm0-11h-50v-16h50z" fill="#9bc9ff"></path><path d="m47 32h3v22h-3z" fill="#9bc9ff"></path><g fill="#1e81ce"><path d="m59 2h-54a3.009 3.009 0 0 0 -3 3v54a3.009 3.009 0 0 0 3 3h54a3.009 3.009 0 0 0 3-3v-54a3.009 3.009 0 0 0 -3-3zm1 57a1 1 0 0 1 -1 1h-54a1 1 0 0 1 -1-1v-54a1 1 0 0 1 1-1h54a1 1 0 0 1 1 1z"></path><path d="m11 50h-2a3 3 0 0 0 -3 3v2a3 3 0 0 0 3 3h2a3 3 0 0 0 3-3v-2a3 3 0 0 0 -3-3zm1 5a1 1 0 0 1 -1 1h-2a1 1 0 0 1 -1-1v-2a1 1 0 0 1 1-1h2a1 1 0 0 1 1 1z"></path><path d="m20 50h-2a3 3 0 0 0 -3 3v2a3 3 0 0 0 3 3h2a3 3 0 0 0 3-3v-2a3 3 0 0 0 -3-3zm1 5a1 1 0 0 1 -1 1h-2a1 1 0 0 1 -1-1v-2a1 1 0 0 1 1-1h2a1 1 0 0 1 1 1z"></path><path d="m29 50h-2a3 3 0 0 0 -3 3v2a3 3 0 0 0 3 3h2a3 3 0 0 0 3-3v-2a3 3 0 0 0 -3-3zm1 5a1 1 0 0 1 -1 1h-2a1 1 0 0 1 -1-1v-2a1 1 0 0 1 1-1h2a1 1 0 0 1 1 1z"></path><path d="m11 41h-2a3 3 0 0 0 -3 3v2a3 3 0 0 0 3 3h2a3 3 0 0 0 3-3v-2a3 3 0 0 0 -3-3zm1 5a1 1 0 0 1 -1 1h-2a1 1 0 0 1 -1-1v-2a1 1 0 0 1 1-1h2a1 1 0 0 1 1 1z"></path><path d="m20 41h-2a3 3 0 0 0 -3 3v2a3 3 0 0 0 3 3h2a3 3 0 0 0 3-3v-2a3 3 0 0 0 -3-3zm1 5a1 1 0 0 1 -1 1h-2a1 1 0 0 1 -1-1v-2a1 1 0 0 1 1-1h2a1 1 0 0 1 1 1z"></path><path d="m29 41h-2a3 3 0 0 0 -3 3v2a3 3 0 0 0 3 3h2a3 3 0 0 0 3-3v-2a3 3 0 0 0 -3-3zm1 5a1 1 0 0 1 -1 1h-2a1 1 0 0 1 -1-1v-2a1 1 0 0 1 1-1h2a1 1 0 0 1 1 1z"></path><path d="m11 32h-2a3 3 0 0 0 -3 3v2a3 3 0 0 0 3 3h2a3 3 0 0 0 3-3v-2a3 3 0 0 0 -3-3zm1 5a1 1 0 0 1 -1 1h-2a1 1 0 0 1 -1-1v-2a1 1 0 0 1 1-1h2a1 1 0 0 1 1 1z"></path><path d="m20 32h-2a3 3 0 0 0 -3 3v2a3 3 0 0 0 3 3h2a3 3 0 0 0 3-3v-2a3 3 0 0 0 -3-3zm1 5a1 1 0 0 1 -1 1h-2a1 1 0 0 1 -1-1v-2a1 1 0 0 1 1-1h2a1 1 0 0 1 1 1z"></path><path d="m29 32h-2a3 3 0 0 0 -3 3v2a3 3 0 0 0 3 3h2a3 3 0 0 0 3-3v-2a3 3 0 0 0 -3-3zm1 5a1 1 0 0 1 -1 1h-2a1 1 0 0 1 -1-1v-2a1 1 0 0 1 1-1h2a1 1 0 0 1 1 1z"></path><path d="m57 6h-50a1 1 0 0 0 -1 1v16a1 1 0 0 0 1 1h50a1 1 0 0 0 1-1v-16a1 1 0 0 0 -1-1zm-1 16h-48v-14h48z"></path><path d="m37 18c-1.221 0-2-.592-2-1a1 1 0 0 0 -2 0c0 1.682 1.757 3 4 3s4-1.318 4-3-1.757-3-4-3c-1.221 0-2-.592-2-1s.779-1 2-1 2 .592 2 1a1 1 0 0 0 2 0c0-1.682-1.757-3-4-3s-4 1.318-4 3 1.757 3 4 3c1.221 0 2 .592 2 1s-.779 1-2 1z"></path><path d="m42 41a1 1 0 0 0 -1 1v2a1 1 0 0 0 2 0v-2a1 1 0 0 0 -1-1z"></path><path d="m42 47a1 1 0 0 0 -1 1v2a1 1 0 0 0 2 0v-2a1 1 0 0 0 -1-1z"></path><path d="m57 28h-22a1 1 0 0 0 -1 1v5a1 1 0 0 0 1 1h2v19a1 1 0 0 0 1 1h16a1 1 0 0 0 1-1v-19h2a1 1 0 0 0 1-1v-5a1 1 0 0 0 -1-1zm-11 25h-7v-20h7zm3 0h-1v-20h1zm4 0h-2v-20h2zm3-20h-1v-1a1 1 0 0 0 -1-1h-16a1 1 0 0 0 -1 1v1h-1v-3h20z"></path><path d="m28 30a1 1 0 0 0 0-2h-18a1 1 0 0 0 0 2z"></path><path d="m23.758 19.97a1 1 0 0 0 1.212-.727l.561-2.243h2.938l.561 2.243a1 1 0 0 0 .97.757.968.968 0 0 0 .243-.03 1 1 0 0 0 .728-1.213l-2-8a1 1 0 0 0 -.971-.757h-2a1 1 0 0 0 -.97.757l-2 8a1 1 0 0 0 .728 1.213zm3.461-7.97.75 3h-1.938l.75-3z"></path><path d="m44 20a1 1 0 0 0 1-1v-3h4v3a1 1 0 0 0 2 0v-8a1 1 0 0 0 -2 0v3h-4v-3a1 1 0 0 0 -2 0v8a1 1 0 0 0 1 1z"></path><path d="m16 20h3a2 2 0 0 0 2-2 1 1 0 0 0 -2 0h-3a1 1 0 0 1 -1-1v-4a1 1 0 0 1 1-1h3a1 1 0 0 0 2 0 2 2 0 0 0 -2-2h-3a3 3 0 0 0 -3 3v4a3 3 0 0 0 3 3z"></path></g></g></svg>
